<svg width="18" height="18" viewBox="0 0 18 18" fill="none" xmlns="http://www.w3.org/2000/svg">
<path d="M9.6 14.7C9.79014 14.8426 10.0115 14.938 10.2457 14.9783C10.4799 15.0186 10.7204 15.0026 10.9473 14.9318C11.1741 14.8609 11.3809 14.7371 11.5505 14.5707C11.7202 14.4042 11.8479 14.1998 11.923 13.9743C11.9982 13.7489 12.0187 13.5087 11.9828 13.2738C11.947 13.0388 11.8558 12.8157 11.7169 12.6229C11.5779 12.4301 11.3951 12.2731 11.1835 12.1648C10.972 12.0565 10.7377 12 10.5 12H1.5" stroke="#2D4A3E" stroke-width="1.5" stroke-linecap="round" stroke-linejoin="round"/>
<path d="M13.125 6C13.3168 5.74432 13.5707 5.54189 13.8627 5.41195C14.1547 5.28202 14.4751 5.22887 14.7934 5.25758C15.1117 5.28628 15.4174 5.39587 15.6814 5.57595C15.9455 5.75603 16.1591 6.00061 16.3021 6.28647C16.445 6.57234 16.5125 6.89 16.4981 7.20928C16.4837 7.52856 16.388 7.83887 16.22 8.11075C16.0519 8.38262 15.8172 8.60703 15.5381 8.76267C15.2589 8.9183 14.9446 9 14.625 9H1.5" stroke="#2D4A3E" stroke-width="1.5" stroke-linecap="round" stroke-linejoin="round"/>
<path d="M7.35 3.3C7.54014 3.15739 7.76145 3.06201 7.99569 3.02172C8.22992 2.98142 8.47038 2.99736 8.69725 3.06823C8.92412 3.1391 9.1309 3.26286 9.30055 3.42932C9.4702 3.59578 9.59786 3.80018 9.67302 4.02566C9.74819 4.25114 9.76869 4.49125 9.73284 4.72621C9.697 4.96117 9.60584 5.18425 9.46686 5.37707C9.32789 5.56988 9.14509 5.72691 8.93352 5.83522C8.72195 5.94352 8.48768 6 8.25 6H1.5" stroke="#2D4A3E" stroke-width="1.5" stroke-linecap="round" stroke-linejoin="round"/>
</svg>
