<svg width="16" height="16" viewBox="0 0 16 16" fill="none" xmlns="http://www.w3.org/2000/svg">
<path d="M1.72401 11.6094C1.47394 11.8593 1.33342 12.1984 1.33334 12.552V14C1.33334 14.1768 1.40358 14.3464 1.52861 14.4714C1.65363 14.5965 1.8232 14.6667 2.00001 14.6667H4.00001C4.17682 14.6667 4.34639 14.5965 4.47141 14.4714C4.59644 14.3464 4.66668 14.1768 4.66668 14V13.3334C4.66668 13.1565 4.73691 12.987 4.86194 12.862C4.98696 12.7369 5.15653 12.6667 5.33334 12.6667H6.00001C6.17682 12.6667 6.34639 12.5965 6.47141 12.4714C6.59644 12.3464 6.66668 12.1768 6.66668 12V11.3334C6.66668 11.1565 6.73692 10.987 6.86194 10.862C6.98696 10.7369 7.15653 10.6667 7.33334 10.6667H7.44801C7.8016 10.6666 8.14069 10.5261 8.39068 10.276L8.93334 9.73336C9.8599 10.0561 10.8686 10.0549 11.7943 9.72986C12.7201 9.40483 13.5082 8.77525 14.0296 7.94411C14.551 7.11297 14.7749 6.12947 14.6648 5.15452C14.5546 4.17956 14.1168 3.27086 13.423 2.57707C12.7292 1.88328 11.8205 1.44548 10.8455 1.33528C9.87056 1.22509 8.88707 1.44902 8.05593 1.97045C7.22479 2.49188 6.5952 3.27994 6.27018 4.20571C5.94515 5.13147 5.94391 6.14014 6.26668 7.06669L1.72401 11.6094Z" stroke="#8A8A80" stroke-width="1.33333" stroke-linecap="round" stroke-linejoin="round"/>
<path d="M11 5.33335C11.1841 5.33335 11.3333 5.18412 11.3333 5.00002C11.3333 4.81593 11.1841 4.66669 11 4.66669C10.8159 4.66669 10.6667 4.81593 10.6667 5.00002C10.6667 5.18412 10.8159 5.33335 11 5.33335Z" fill="#1A1A1A" stroke="#8A8A80" stroke-width="1.33333" stroke-linecap="round" stroke-linejoin="round"/>
</svg>
