<svg width="7" height="15" viewBox="0 0 7 15" fill="none" xmlns="http://www.w3.org/2000/svg">
<path d="M4.66667 1.99999V9.02666C5.17505 9.32017 5.57237 9.77323 5.79702 10.3156C6.02166 10.8579 6.06108 11.4592 5.90914 12.0262C5.75721 12.5933 5.42242 13.0943 4.9567 13.4517C4.49099 13.809 3.92036 14.0027 3.33334 14.0027C2.74632 14.0027 2.17569 13.809 1.70998 13.4517C1.24426 13.0943 0.90947 12.5933 0.757537 12.0262C0.605604 11.4592 0.645016 10.8579 0.869661 10.3156C1.09431 9.77323 1.49163 9.32017 2.00001 9.02666V1.99999C2.00001 1.64637 2.14048 1.30723 2.39053 1.05718C2.64058 0.807132 2.97972 0.666656 3.33334 0.666656C3.68696 0.666656 4.0261 0.807132 4.27615 1.05718C4.5262 1.30723 4.66667 1.64637 4.66667 1.99999Z" stroke="#2D4A3E" stroke-width="1.33333" stroke-linecap="round" stroke-linejoin="round"/>
</svg>
