<svg width="16" height="16" viewBox="0 0 16 16" fill="none" xmlns="http://www.w3.org/2000/svg">
<path d="M4.66667 10.8667C6.13333 10.8667 7.33333 9.64666 7.33333 8.16666C7.33333 7.39333 6.95333 6.65999 6.19333 6.03999C5.43333 5.41999 4.86 4.49999 4.66667 3.53333C4.47333 4.49999 3.90667 5.42666 3.14 6.03999C2.37333 6.65333 2 7.39999 2 8.16666C2 9.64666 3.2 10.8667 4.66667 10.8667Z" stroke="#3A85B5" stroke-width="1.33333" stroke-linecap="round" stroke-linejoin="round"/>
<path d="M8.37333 4.4C8.83184 3.66742 9.15686 2.85937 9.33333 2.01334C9.66666 3.68 10.6667 5.28 12 6.34667C13.3333 7.41334 14 8.68 14 10.0133C14.0038 10.9349 13.7339 11.8368 13.2245 12.6047C12.7151 13.3727 11.9892 13.9721 11.1388 14.327C10.2883 14.6819 9.35161 14.7763 8.44745 14.5982C7.54328 14.4201 6.71235 13.9776 6.06 13.3267" stroke="#3A85B5" stroke-width="1.33333" stroke-linecap="round" stroke-linejoin="round"/>
</svg>
